<svg id="Layer_1" data-name="Layer 1" xmlns="http://www.w3.org/2000/svg" viewBox="0 0 235.3138 78.8242">
  <defs>
    <style>.cls-1 {
      fill: #fff;
    }

    .cls-2 {
      fill: none;
      stroke: #59aab2;
      stroke-linecap: round;
      stroke-linejoin: round;
      stroke-width: 0.5px;
    }

    .cls-3 {
      fill: #9bc7ce;
    }

    .cls-4 {
      fill: #74afbb;
    }

    .cls-5 {
      fill: #4e97a8;
    }

    .cls-6 {
      fill: #277f95;
    }

    .cls-7 {
      fill: #006782;
    }</style>
  </defs>
  <title>Reactome_GSA</title>
<!--  <rect class="cls-1" width="78.8242" height="78.8242" rx="2"/>-->
  <line class="cls-2" x1="9.853" y1="7.3898" x2="9.853" y2="12.3163"/>
  <line class="cls-2" x1="12.3163" y1="9.853" x2="7.3898" y2="9.853"/>
  <line class="cls-2" x1="19.7061" y1="7.3898" x2="19.7061" y2="12.3163"/>
  <line class="cls-2" x1="22.1693" y1="9.853" x2="17.2428" y2="9.853"/>
  <line class="cls-2" x1="29.5591" y1="7.3898" x2="29.5591" y2="12.3163"/>
  <line class="cls-2" x1="32.0223" y1="9.853" x2="27.0958" y2="9.853"/>
  <line class="cls-2" x1="39.4121" y1="7.3898" x2="39.4121" y2="12.3163"/>
  <line class="cls-2" x1="41.8754" y1="9.853" x2="36.9488" y2="9.853"/>
  <line class="cls-2" x1="49.2651" y1="7.3898" x2="49.2651" y2="12.3163"/>
  <line class="cls-2" x1="51.7284" y1="9.853" x2="46.8019" y2="9.853"/>
  <line class="cls-2" x1="59.1182" y1="7.3898" x2="59.1182" y2="12.3163"/>
  <line class="cls-2" x1="61.5814" y1="9.853" x2="56.6549" y2="9.853"/>
  <line class="cls-2" x1="68.9712" y1="7.3898" x2="68.9712" y2="12.3163"/>
  <line class="cls-2" x1="71.4344" y1="9.853" x2="66.5079" y2="9.853"/>
  <line class="cls-2" x1="9.853" y1="17.2428" x2="9.853" y2="22.1693"/>
  <line class="cls-2" x1="12.3163" y1="19.7061" x2="7.3898" y2="19.7061"/>
  <line class="cls-2" x1="19.7061" y1="17.2428" x2="19.7061" y2="22.1693"/>
  <line class="cls-2" x1="22.1693" y1="19.7061" x2="17.2428" y2="19.7061"/>
  <line class="cls-2" x1="29.5591" y1="17.2428" x2="29.5591" y2="22.1693"/>
  <line class="cls-2" x1="32.0223" y1="19.7061" x2="27.0958" y2="19.7061"/>
  <line class="cls-2" x1="39.4121" y1="17.2428" x2="39.4121" y2="22.1693"/>
  <line class="cls-2" x1="41.8754" y1="19.7061" x2="36.9488" y2="19.7061"/>
  <line class="cls-2" x1="49.2651" y1="17.2428" x2="49.2651" y2="22.1693"/>
  <line class="cls-2" x1="51.7284" y1="19.7061" x2="46.8019" y2="19.7061"/>
  <line class="cls-2" x1="59.1182" y1="17.2428" x2="59.1182" y2="22.1693"/>
  <line class="cls-2" x1="61.5814" y1="19.7061" x2="56.6549" y2="19.7061"/>
  <line class="cls-2" x1="68.9712" y1="17.2428" x2="68.9712" y2="22.1693"/>
  <line class="cls-2" x1="71.4344" y1="19.7061" x2="66.5079" y2="19.7061"/>
  <line class="cls-2" x1="9.853" y1="27.0958" x2="9.853" y2="32.0223"/>
  <line class="cls-2" x1="12.3163" y1="29.5591" x2="7.3898" y2="29.5591"/>
  <line class="cls-2" x1="19.7061" y1="27.0958" x2="19.7061" y2="32.0223"/>
  <line class="cls-2" x1="22.1693" y1="29.5591" x2="17.2428" y2="29.5591"/>
  <line class="cls-2" x1="29.5591" y1="27.0958" x2="29.5591" y2="32.0223"/>
  <line class="cls-2" x1="32.0223" y1="29.5591" x2="27.0958" y2="29.5591"/>
  <line class="cls-2" x1="39.4121" y1="27.0958" x2="39.4121" y2="32.0223"/>
  <line class="cls-2" x1="41.8754" y1="29.5591" x2="36.9488" y2="29.5591"/>
  <line class="cls-2" x1="49.2651" y1="27.0958" x2="49.2651" y2="32.0223"/>
  <line class="cls-2" x1="51.7284" y1="29.5591" x2="46.8019" y2="29.5591"/>
  <line class="cls-2" x1="59.1182" y1="27.0958" x2="59.1182" y2="32.0223"/>
  <line class="cls-2" x1="61.5814" y1="29.5591" x2="56.6549" y2="29.5591"/>
  <line class="cls-2" x1="68.9712" y1="27.0958" x2="68.9712" y2="32.0223"/>
  <line class="cls-2" x1="71.4344" y1="29.5591" x2="66.5079" y2="29.5591"/>
  <line class="cls-2" x1="9.853" y1="36.9488" x2="9.853" y2="41.8754"/>
  <line class="cls-2" x1="12.3163" y1="39.4121" x2="7.3898" y2="39.4121"/>
  <line class="cls-2" x1="19.7061" y1="36.9488" x2="19.7061" y2="41.8754"/>
  <line class="cls-2" x1="22.1693" y1="39.4121" x2="17.2428" y2="39.4121"/>
  <line class="cls-2" x1="29.5591" y1="36.9488" x2="29.5591" y2="41.8754"/>
  <line class="cls-2" x1="32.0223" y1="39.4121" x2="27.0958" y2="39.4121"/>
  <line class="cls-2" x1="39.4121" y1="36.9488" x2="39.4121" y2="41.8754"/>
  <line class="cls-2" x1="41.8754" y1="39.4121" x2="36.9488" y2="39.4121"/>
  <line class="cls-2" x1="49.2651" y1="36.9488" x2="49.2651" y2="41.8754"/>
  <line class="cls-2" x1="51.7284" y1="39.4121" x2="46.8019" y2="39.4121"/>
  <line class="cls-2" x1="59.1182" y1="36.9488" x2="59.1182" y2="41.8754"/>
  <line class="cls-2" x1="61.5814" y1="39.4121" x2="56.6549" y2="39.4121"/>
  <line class="cls-2" x1="68.9712" y1="36.9488" x2="68.9712" y2="41.8754"/>
  <line class="cls-2" x1="71.4344" y1="39.4121" x2="66.5079" y2="39.4121"/>
  <line class="cls-2" x1="9.853" y1="46.8019" x2="9.853" y2="51.7284"/>
  <line class="cls-2" x1="12.3163" y1="49.2651" x2="7.3898" y2="49.2651"/>
  <line class="cls-2" x1="19.7061" y1="46.8019" x2="19.7061" y2="51.7284"/>
  <line class="cls-2" x1="22.1693" y1="49.2651" x2="17.2428" y2="49.2651"/>
  <line class="cls-2" x1="29.5591" y1="46.8019" x2="29.5591" y2="51.7284"/>
  <line class="cls-2" x1="32.0223" y1="49.2651" x2="27.0958" y2="49.2651"/>
  <line class="cls-2" x1="39.4121" y1="46.8019" x2="39.4121" y2="51.7284"/>
  <line class="cls-2" x1="41.8754" y1="49.2651" x2="36.9488" y2="49.2651"/>
  <line class="cls-2" x1="49.2651" y1="46.8019" x2="49.2651" y2="51.7284"/>
  <line class="cls-2" x1="51.7284" y1="49.2651" x2="46.8019" y2="49.2651"/>
  <line class="cls-2" x1="59.1182" y1="46.8019" x2="59.1182" y2="51.7284"/>
  <line class="cls-2" x1="61.5814" y1="49.2651" x2="56.6549" y2="49.2651"/>
  <line class="cls-2" x1="68.9712" y1="46.8019" x2="68.9712" y2="51.7284"/>
  <line class="cls-2" x1="71.4344" y1="49.2651" x2="66.5079" y2="49.2651"/>
  <line class="cls-2" x1="9.853" y1="56.6549" x2="9.853" y2="61.5814"/>
  <line class="cls-2" x1="12.3163" y1="59.1182" x2="7.3898" y2="59.1182"/>
  <line class="cls-2" x1="19.7061" y1="56.6549" x2="19.7061" y2="61.5814"/>
  <line class="cls-2" x1="22.1693" y1="59.1182" x2="17.2428" y2="59.1182"/>
  <line class="cls-2" x1="29.5591" y1="56.6549" x2="29.5591" y2="61.5814"/>
  <line class="cls-2" x1="32.0223" y1="59.1182" x2="27.0958" y2="59.1182"/>
  <line class="cls-2" x1="39.4121" y1="56.6549" x2="39.4121" y2="61.5814"/>
  <line class="cls-2" x1="41.8754" y1="59.1182" x2="36.9488" y2="59.1182"/>
  <line class="cls-2" x1="49.2651" y1="56.6549" x2="49.2651" y2="61.5814"/>
  <line class="cls-2" x1="51.7284" y1="59.1182" x2="46.8019" y2="59.1182"/>
  <line class="cls-2" x1="59.1182" y1="56.6549" x2="59.1182" y2="61.5814"/>
  <line class="cls-2" x1="61.5814" y1="59.1182" x2="56.6549" y2="59.1182"/>
  <line class="cls-2" x1="68.9712" y1="56.6549" x2="68.9712" y2="61.5814"/>
  <line class="cls-2" x1="71.4344" y1="59.1182" x2="66.5079" y2="59.1182"/>
  <line class="cls-2" x1="9.853" y1="66.5079" x2="9.853" y2="71.4344"/>
  <line class="cls-2" x1="12.3163" y1="68.9712" x2="7.3898" y2="68.9712"/>
  <line class="cls-2" x1="19.7061" y1="66.5079" x2="19.7061" y2="71.4344"/>
  <line class="cls-2" x1="22.1693" y1="68.9712" x2="17.2428" y2="68.9712"/>
  <line class="cls-2" x1="29.5591" y1="66.5079" x2="29.5591" y2="71.4344"/>
  <line class="cls-2" x1="32.0223" y1="68.9712" x2="27.0958" y2="68.9712"/>
  <line class="cls-2" x1="39.4121" y1="66.5079" x2="39.4121" y2="71.4344"/>
  <line class="cls-2" x1="41.8754" y1="68.9712" x2="36.9488" y2="68.9712"/>
  <line class="cls-2" x1="49.2651" y1="66.5079" x2="49.2651" y2="71.4344"/>
  <line class="cls-2" x1="51.7284" y1="68.9712" x2="46.8019" y2="68.9712"/>
  <line class="cls-2" x1="59.1182" y1="66.5079" x2="59.1182" y2="71.4344"/>
  <line class="cls-2" x1="61.5814" y1="68.9712" x2="56.6549" y2="68.9712"/>
  <line class="cls-2" x1="68.9712" y1="66.5079" x2="68.9712" y2="71.4344"/>
  <line class="cls-2" x1="71.4344" y1="68.9712" x2="66.5079" y2="68.9712"/>
  <circle class="cls-3" cx="57.7962" cy="26.0626" r="16.9758"/>
  <circle class="cls-4" cx="57.7962" cy="26.0626" r="13.9101"/>
  <circle class="cls-5" cx="57.7962" cy="26.0626" r="10.8444"/>
  <circle class="cls-6" cx="57.7962" cy="26.0626" r="7.7786"/>
  <circle class="cls-7" cx="57.7962" cy="26.0626" r="4.7129"/>
  <circle class="cls-6" cx="17.0277" cy="25.6518" r="9.4232"/>
  <circle class="cls-5" cx="17.0277" cy="25.6518" r="6.5695"/>
  <circle class="cls-4" cx="17.0277" cy="25.6518" r="3.7157"/>
  <circle class="cls-5" cx="31.5726" cy="56.1158" r="6.61"/>
  <circle class="cls-6" cx="31.5726" cy="56.1158" r="3.7136"/>
  <g id="LOGO">
    <path class="cls-1"
          d="M675.6167,350.9583a.8775.8775,0,0,1-.2962.6626.8529.8529,0,0,1-.4932.1268,5.0441,5.0441,0,0,1-.6629-.0562,5.26,5.26,0,0,0-3.2.5357,4.3647,4.3647,0,0,0-1.72,1.6354,4.493,4.493,0,0,0-.62,2.34v8.5715a.8494.8494,0,0,1-.2255.606.811.811,0,0,1-.6205.24.82.82,0,0,1-.8459-.8456V351.043a.8115.8115,0,0,1,.24-.62.8507.8507,0,0,1,.6063-.2256.78.78,0,0,1,.846.846v1.7481a5.9879,5.9879,0,0,1,2.0864-2.03,5.43,5.43,0,0,1,2.763-.7332Q675.6162,350.0277,675.6167,350.9583Z"
          transform="translate(-565.6286 -345.2911)"/>
    <path class="cls-1"
          d="M687.67,351.0289a6.7133,6.7133,0,0,1,2.5234,2.6924,8.315,8.315,0,0,1,.9022,3.9192.7544.7544,0,0,1-.2255.5779.8313.8313,0,0,1-.5924.2115H678.464a6.2882,6.2882,0,0,0,.874,2.9748,5.58,5.58,0,0,0,2.1149,2.0439,6.006,6.006,0,0,0,2.96.7332,6.8131,6.8131,0,0,0,2.2132-.38,4.7221,4.7221,0,0,0,1.7622-1.0012.936.936,0,0,1,.5923-.2255.7419.7419,0,0,1,.5638,1.297,7.154,7.154,0,0,1-2.3544,1.3536,8.0206,8.0206,0,0,1-2.7771.5357,7.7763,7.7763,0,0,1-3.9617-1.0012,7.1237,7.1237,0,0,1-2.72-2.7911,8.2331,8.2331,0,0,1-.9872-4.046,8.8141,8.8141,0,0,1,.9165-4.0744,6.8256,6.8256,0,0,1,2.5656-2.7912,7.1138,7.1138,0,0,1,3.7643-1.0008A7.0135,7.0135,0,0,1,687.67,351.0289Zm-7.3872,2.0724a6.2029,6.2029,0,0,0-1.79,3.8626H689.46a5.882,5.882,0,0,0-1.6919-3.8626,5.1743,5.1743,0,0,0-3.7779-1.4664A5.1158,5.1158,0,0,0,680.2827,353.1013Z"
          transform="translate(-565.6286 -345.2911)"/>
    <path class="cls-1"
          d="M705.2492,351.057a7.4655,7.4655,0,0,1,2.8336,2.8337,7.9918,7.9918,0,0,1,1.0294,4.0319v6.8515a.85.85,0,0,1-.2256.606.8106.8106,0,0,1-.62.24.82.82,0,0,1-.8459-.8456v-2.2a6.5576,6.5576,0,0,1-2.5515,2.3544,7.6092,7.6092,0,0,1-3.6231.86,7.9868,7.9868,0,0,1-4.0319-1.0293,7.4527,7.4527,0,0,1-2.8336-2.8336,8.3558,8.3558,0,0,1,0-8.0354,7.46,7.46,0,0,1,2.8336-2.8337,8.3558,8.3558,0,0,1,8.0354,0Zm-.8456,12.3354a5.8678,5.8678,0,0,0,2.2132-2.2557,6.831,6.831,0,0,0,0-6.4286,5.9736,5.9736,0,0,0-2.2132-2.2694,6.1934,6.1934,0,0,0-8.5434,2.2694,6.7286,6.7286,0,0,0,0,6.4286,5.9647,5.9647,0,0,0,2.2277,2.2557,6.5078,6.5078,0,0,0,6.3157,0Z"
          transform="translate(-565.6286 -345.2911)"/>
    <path class="cls-1"
          d="M716.2454,364.76a7.367,7.367,0,0,1-2.749-2.8336,8.1076,8.1076,0,0,1-1.0012-4.0035,8.582,8.582,0,0,1,.9306-4.0179,7.09,7.09,0,0,1,2.5941-2.82,6.9321,6.9321,0,0,1,3.7217-1.0289,7.64,7.64,0,0,1,3.2987.7047,7.2585,7.2585,0,0,1,2.5941,2.0864.8994.8994,0,0,1,.1974.4795.6894.6894,0,0,1-.3949.62.6743.6743,0,0,1-.451.1693.7776.7776,0,0,1-.6485-.3383,5.7456,5.7456,0,0,0-4.5958-2.143,5.2166,5.2166,0,0,0-4.8638,3.0451,7.3938,7.3938,0,0,0-.6907,3.2426,6.7591,6.7591,0,0,0,.7613,3.2141,5.6889,5.6889,0,0,0,2.1145,2.2557,5.8764,5.8764,0,0,0,3.1017.8175,5.6247,5.6247,0,0,0,3.9753-1.3813.8118.8118,0,0,1,.5923-.254.6884.6884,0,0,1,.5073.1974.8047.8047,0,0,1,.2821.62.6431.6431,0,0,1-.2255.5073,7.0049,7.0049,0,0,1-2.312,1.3957,8.023,8.023,0,0,1-2.82.4936A7.5726,7.5726,0,0,1,716.2454,364.76Z"
          transform="translate(-565.6286 -345.2911)"/>
    <path class="cls-1"
          d="M737.6592,364.14a.86.86,0,0,1,.24.6345.8223.8223,0,0,1-.24.606.8574.8574,0,0,1-.6345.24h-.6485a5.3944,5.3944,0,0,1-2.763-.7047,4.9717,4.9717,0,0,1-1.8893-1.9315,5.6516,5.6516,0,0,1-.6766-2.7771v-7.923h-2.1992a.7616.7616,0,1,1,0-1.5225h2.1992v-4.5958a.8587.8587,0,0,1,.24-.6344.8234.8234,0,0,1,.6064-.24.8237.8237,0,0,1,.8741.874v4.5958h3.7217a.7616.7616,0,1,1,0,1.5225h-3.7217v7.923a3.6316,3.6316,0,0,0,1.0149,2.6643,3.5225,3.5225,0,0,0,2.6221,1.029h.62A.8592.8592,0,0,1,737.6592,364.14Z"
          transform="translate(-565.6286 -345.2911)"/>
    <path class="cls-1"
          d="M744.44,364.76a7.4537,7.4537,0,0,1-2.8337-2.8336,8.3558,8.3558,0,0,1,0-8.0354,7.4609,7.4609,0,0,1,2.8337-2.8337,8.3556,8.3556,0,0,1,8.0353,0,7.465,7.465,0,0,1,2.8337,2.8337,8.3558,8.3558,0,0,1,0,8.0354,7.4578,7.4578,0,0,1-2.8337,2.8336,8.3556,8.3556,0,0,1-8.0353,0Zm7.19-1.3673a5.8685,5.8685,0,0,0,2.2132-2.2557,6.8317,6.8317,0,0,0,0-6.4286,5.9743,5.9743,0,0,0-2.2132-2.2694,6.1933,6.1933,0,0,0-8.5434,2.2694,6.7278,6.7278,0,0,0,0,6.4286,5.9652,5.9652,0,0,0,2.2276,2.2557,6.508,6.508,0,0,0,6.3158,0Z"
          transform="translate(-565.6286 -345.2911)"/>
    <path class="cls-1"
          d="M779.8526,350.8456a5.6575,5.6575,0,0,1,2.0583,2.354,7.7457,7.7457,0,0,1,.7328,3.426v8.1485a.8477.8477,0,0,1-.2255.606.8094.8094,0,0,1-.62.24.82.82,0,0,1-.846-.8456v-8.1485a5.3511,5.3511,0,0,0-1.1561-3.5528,3.6891,3.6891,0,0,0-2.9605-1.3813,4.1579,4.1579,0,0,0-3.186,1.297,4.6444,4.6444,0,0,0-1.1561,3.44v8.346a.8478.8478,0,0,1-.2256.606.8091.8091,0,0,1-.62.24.8194.8194,0,0,1-.8459-.8456v-8.1485a5.3511,5.3511,0,0,0-1.1562-3.5528,3.6891,3.6891,0,0,0-2.96-1.3813,4.2506,4.2506,0,0,0-4.4265,4.4545v8.6281a.8494.8494,0,0,1-.2255.606.8108.8108,0,0,1-.62.24.82.82,0,0,1-.846-.8456V351.043a.8115.8115,0,0,1,.24-.62.851.851,0,0,1,.6064-.2256.78.78,0,0,1,.8459.846v1.1a5.4687,5.4687,0,0,1,1.9456-1.5791A5.585,5.585,0,0,1,766.6854,350a5.4547,5.4547,0,0,1,2.9323.8038,5.7734,5.7734,0,0,1,2.0583,2.2132,5.6373,5.6373,0,0,1,2.1145-2.2132A5.8515,5.8515,0,0,1,776.8356,350,5.4862,5.4862,0,0,1,779.8526,350.8456Z"
          transform="translate(-565.6286 -345.2911)"/>
    <path class="cls-1"
          d="M797.5166,351.0289a6.714,6.714,0,0,1,2.5234,2.6924,8.3149,8.3149,0,0,1,.9021,3.9192.7544.7544,0,0,1-.2255.5779.8308.8308,0,0,1-.5923.2115H788.3106a6.2894,6.2894,0,0,0,.8741,2.9748,5.58,5.58,0,0,0,2.1148,2.0439,6.0061,6.0061,0,0,0,2.9605.7332,6.8135,6.8135,0,0,0,2.2132-.38,4.7224,4.7224,0,0,0,1.7621-1.0012.9364.9364,0,0,1,.5923-.2255.742.742,0,0,1,.5639,1.297,7.1535,7.1535,0,0,1-2.3545,1.3536,8.02,8.02,0,0,1-2.777.5357,7.776,7.776,0,0,1-3.9617-1.0012,7.1239,7.1239,0,0,1-2.7205-2.7911,8.2331,8.2331,0,0,1-.9872-4.046,8.8129,8.8129,0,0,1,.9166-4.0744,6.8249,6.8249,0,0,1,2.5656-2.7912,7.1132,7.1132,0,0,1,3.7642-1.0008A7.0138,7.0138,0,0,1,797.5166,351.0289Zm-7.3873,2.0724a6.2028,6.2028,0,0,0-1.79,3.8626h10.9677a5.881,5.881,0,0,0-1.6919-3.8626,5.1739,5.1739,0,0,0-3.7779-1.4664A5.1158,5.1158,0,0,0,790.1293,353.1013Z"
          transform="translate(-565.6286 -345.2911)"/>
  </g>
  <path class="cls-1"
        d="M707.4923,396.5473a3.273,3.273,0,0,1,.9288,2.4056v15.3228a2.8855,2.8855,0,0,1-1.0279,2.3742,24.8678,24.8678,0,0,1-28.2453,2.1785,24.4419,24.4419,0,0,1-8.9438-9.2959,26.3871,26.3871,0,0,1-3.2717-13.0165,26.0782,26.0782,0,0,1,3.2717-12.92,24.7679,24.7679,0,0,1,8.9438-9.2985,23.7879,23.7879,0,0,1,12.5389-3.4309,24.8483,24.8483,0,0,1,8.4272,1.2836,25.3236,25.3236,0,0,1,7.2165,4.2319,2.9864,2.9864,0,0,1,1.0228,1.1871,3.6724,3.6724,0,0,1,.2609,1.4428,2.72,2.72,0,0,1-.934,2.1159,3.19,3.19,0,0,1-2.2073.8323,3.3972,3.3972,0,0,1-2.1811-.8323,18.7438,18.7438,0,0,0-5.1294-3.24,17.8554,17.8554,0,0,0-6.4756-.9914,17.0378,17.0378,0,0,0-9.2046,2.6272,19.0673,19.0673,0,0,0-6.6687,7.1488,20.9221,20.9221,0,0,0,0,19.7164,19.1135,19.1135,0,0,0,6.6687,7.1174,17.0171,17.0171,0,0,0,9.2046,2.63,18.658,18.658,0,0,0,10.3213-3.2065V401.5175h-8.85a3.4741,3.4741,0,0,1-2.4055-.8349,2.8745,2.8745,0,0,1,0-4.2318,3.4731,3.4731,0,0,1,2.4055-.8323h11.9911A3.1877,3.1877,0,0,1,707.4923,396.5473Z"
        transform="translate(-565.6286 -344.662)"/>
  <path class="cls-1"
        d="M723.6474,419.405a15.2356,15.2356,0,0,1-7.0183-7.3731,3.4871,3.4871,0,0,1-.3235-1.281,2.3773,2.3773,0,0,1,.71-1.7011,3.6256,3.6256,0,0,1,1.92-.9941,2.3278,2.3278,0,0,1,.6418-.0626,3.5319,3.5319,0,0,1,1.9568.6079,3.6626,3.6626,0,0,1,1.3776,1.6359,9.4226,9.4226,0,0,0,4.5553,4.2318,16.2841,16.2841,0,0,0,7.4984,1.7324,14.4072,14.4072,0,0,0,8.1453-2.2124,6.9149,6.9149,0,0,0,3.3344-6.0608,8.2075,8.2075,0,0,0-2.823-6.2512q-2.8178-2.5947-8.5889-3.1726-7.9524-.771-12.5077-4.6493a12.2437,12.2437,0,0,1-4.55-9.7134,11.1305,11.1305,0,0,1,2.3377-7.0861,14.6323,14.6323,0,0,1,6.4129-4.5527,25.2337,25.2337,0,0,1,9.1369-1.5707,17.9408,17.9408,0,0,1,9.2985,2.2438,19.1878,19.1878,0,0,1,6.413,6.413,4.3613,4.3613,0,0,1,.7671,2.3063,2.7174,2.7174,0,0,1-1.2785,2.309,3.05,3.05,0,0,1-1.67.4488,3.5189,3.5189,0,0,1-1.795-.48,3.2746,3.2746,0,0,1-1.2837-1.3149,12.1676,12.1676,0,0,0-4.3258-4.391,12.9587,12.9587,0,0,0-6.5747-1.508A14.6619,14.6619,0,0,0,727.53,378.85a6.0937,6.0937,0,0,0-3.016,5.4816,6.977,6.977,0,0,0,2.6925,5.5781q2.6925,2.2464,9.6221,2.9508,7.6939.771,11.9232,4.6493a13.2083,13.2083,0,0,1,4.2319,10.2273,12.7561,12.7561,0,0,1-2.5,7.9184,15.097,15.097,0,0,1-6.6373,4.9363,23.923,23.923,0,0,1-8.8811,1.6359A22.9683,22.9683,0,0,1,723.6474,419.405Z"
        transform="translate(-565.6286 -344.662)"/>
  <path class="cls-1"
        d="M800.9424,418.317a3.137,3.137,0,0,1-.96,2.3064,3.2207,3.2207,0,0,1-2.3742.9628,3.3953,3.3953,0,0,1-1.8264-.5453,3.1016,3.1016,0,0,1-1.2471-1.5054l-3.59-8.9777h-23.022l-3.6527,8.9777a3.5941,3.5941,0,0,1-1.2836,1.5054,3.23,3.23,0,0,1-1.795.5453,3.0773,3.0773,0,0,1-2.3429-.9941,3.33,3.33,0,0,1-.9288-2.34,4.1844,4.1844,0,0,1,.3235-1.4741l18.0179-43.0254a3.2483,3.2483,0,0,1,3.1413-2.2438,3.1147,3.1147,0,0,1,3.1412,2.2438l18.0806,43.1533A4.0558,4.0558,0,0,1,800.9424,418.317Zm-30.7761-13.2747h18.5293l-9.1681-22.8263Z"
        transform="translate(-565.6286 -344.662)"/>
</svg>
