<svg id="Layer_1" data-name="Layer 1" xmlns="http://www.w3.org/2000/svg" viewBox="0 0 242.4 78.4451">
  <defs>
    <style>.cls-1 {
      fill: none;
      stroke: #59aab2;
      stroke-linecap: round;
      stroke-linejoin: round;
      stroke-width: 0.5px;
    }

    .cls-2 {
      fill: #9bc7ce;
    }

    .cls-3 {
      fill: #74afbb;
    }

    .cls-4 {
      fill: #4e97a8;
    }

    .cls-5 {
      fill: #277f95;
    }

    .cls-6 {
      fill: #006782;
    }

    .cls-7 {
      fill: #000
    }</style>
  </defs>
  <title>Reactome_GSA</title>
  <g id="REACTOME_GSA">
    <g id="ILLUSTRATION">
      <g id="GRID">
        <line class="cls-1" x1="3.2333" y1="0.6291" x2="3.2333" y2="6.5957"/>
        <line class="cls-1" x1="6.2166" y1="3.6124" x2="0.25" y2="3.6124"/>
        <line class="cls-1" x1="15.1665" y1="0.6291" x2="15.1665" y2="6.5957"/>
        <line class="cls-1" x1="18.1498" y1="3.6124" x2="12.1832" y2="3.6124"/>
        <line class="cls-1" x1="27.0998" y1="0.6291" x2="27.0998" y2="6.5957"/>
        <line class="cls-1" x1="30.0831" y1="3.6124" x2="24.1165" y2="3.6124"/>
        <line class="cls-1" x1="39.033" y1="0.6291" x2="39.033" y2="6.5957"/>
        <line class="cls-1" x1="42.0163" y1="3.6124" x2="36.0497" y2="3.6124"/>
        <line class="cls-1" x1="50.9662" y1="0.6291" x2="50.9662" y2="6.5957"/>
        <line class="cls-1" x1="53.9495" y1="3.6124" x2="47.9829" y2="3.6124"/>
        <line class="cls-1" x1="62.8995" y1="0.6291" x2="62.8995" y2="6.5957"/>
        <line class="cls-1" x1="65.8828" y1="3.6124" x2="59.9162" y2="3.6124"/>
        <line class="cls-1" x1="74.8327" y1="0.6291" x2="74.8327" y2="6.5957"/>
        <line class="cls-1" x1="77.816" y1="3.6124" x2="71.8494" y2="3.6124"/>
        <line class="cls-1" x1="3.2333" y1="12.5623" x2="3.2333" y2="18.5289"/>
        <line class="cls-1" x1="6.2166" y1="15.5456" x2="0.25" y2="15.5456"/>
        <line class="cls-1" x1="15.1665" y1="12.5623" x2="15.1665" y2="18.5289"/>
        <line class="cls-1" x1="18.1498" y1="15.5456" x2="12.1832" y2="15.5456"/>
        <line class="cls-1" x1="27.0998" y1="12.5623" x2="27.0998" y2="18.5289"/>
        <line class="cls-1" x1="30.0831" y1="15.5456" x2="24.1165" y2="15.5456"/>
        <line class="cls-1" x1="39.033" y1="12.5623" x2="39.033" y2="18.5289"/>
        <line class="cls-1" x1="42.0163" y1="15.5456" x2="36.0497" y2="15.5456"/>
        <line class="cls-1" x1="50.9662" y1="12.5623" x2="50.9662" y2="18.5289"/>
        <line class="cls-1" x1="53.9495" y1="15.5456" x2="47.9829" y2="15.5456"/>
        <line class="cls-1" x1="62.8995" y1="12.5623" x2="62.8995" y2="18.5289"/>
        <line class="cls-1" x1="65.8828" y1="15.5456" x2="59.9162" y2="15.5456"/>
        <line class="cls-1" x1="74.8327" y1="12.5623" x2="74.8327" y2="18.5289"/>
        <line class="cls-1" x1="77.816" y1="15.5456" x2="71.8494" y2="15.5456"/>
        <line class="cls-1" x1="3.2333" y1="24.4956" x2="3.2333" y2="30.4622"/>
        <line class="cls-1" x1="6.2166" y1="27.4789" x2="0.25" y2="27.4789"/>
        <line class="cls-1" x1="15.1665" y1="24.4956" x2="15.1665" y2="30.4622"/>
        <line class="cls-1" x1="18.1498" y1="27.4789" x2="12.1832" y2="27.4789"/>
        <line class="cls-1" x1="27.0998" y1="24.4956" x2="27.0998" y2="30.4622"/>
        <line class="cls-1" x1="30.0831" y1="27.4789" x2="24.1165" y2="27.4789"/>
        <line class="cls-1" x1="39.033" y1="24.4956" x2="39.033" y2="30.4622"/>
        <line class="cls-1" x1="42.0163" y1="27.4789" x2="36.0497" y2="27.4789"/>
        <line class="cls-1" x1="50.9662" y1="24.4956" x2="50.9662" y2="30.4622"/>
        <line class="cls-1" x1="53.9495" y1="27.4789" x2="47.9829" y2="27.4789"/>
        <line class="cls-1" x1="62.8995" y1="24.4956" x2="62.8995" y2="30.4622"/>
        <line class="cls-1" x1="65.8828" y1="27.4789" x2="59.9162" y2="27.4789"/>
        <line class="cls-1" x1="74.8327" y1="24.4956" x2="74.8327" y2="30.4622"/>
        <line class="cls-1" x1="77.816" y1="27.4789" x2="71.8494" y2="27.4789"/>
        <line class="cls-1" x1="3.2333" y1="36.4288" x2="3.2333" y2="42.3954"/>
        <line class="cls-1" x1="6.2166" y1="39.4121" x2="0.25" y2="39.4121"/>
        <line class="cls-1" x1="15.1665" y1="36.4288" x2="15.1665" y2="42.3954"/>
        <line class="cls-1" x1="18.1498" y1="39.4121" x2="12.1832" y2="39.4121"/>
        <line class="cls-1" x1="27.0998" y1="36.4288" x2="27.0998" y2="42.3954"/>
        <line class="cls-1" x1="30.0831" y1="39.4121" x2="24.1165" y2="39.4121"/>
        <line class="cls-1" x1="39.033" y1="36.4288" x2="39.033" y2="42.3954"/>
        <line class="cls-1" x1="42.0163" y1="39.4121" x2="36.0497" y2="39.4121"/>
        <line class="cls-1" x1="50.9662" y1="36.4288" x2="50.9662" y2="42.3954"/>
        <line class="cls-1" x1="53.9495" y1="39.4121" x2="47.9829" y2="39.4121"/>
        <line class="cls-1" x1="62.8995" y1="36.4288" x2="62.8995" y2="42.3954"/>
        <line class="cls-1" x1="65.8828" y1="39.4121" x2="59.9162" y2="39.4121"/>
        <line class="cls-1" x1="74.8327" y1="36.4288" x2="74.8327" y2="42.3954"/>
        <line class="cls-1" x1="77.816" y1="39.4121" x2="71.8494" y2="39.4121"/>
        <line class="cls-1" x1="3.2333" y1="48.362" x2="3.2333" y2="54.3286"/>
        <line class="cls-1" x1="6.2166" y1="51.3453" x2="0.25" y2="51.3453"/>
        <line class="cls-1" x1="15.1665" y1="48.362" x2="15.1665" y2="54.3286"/>
        <line class="cls-1" x1="18.1498" y1="51.3453" x2="12.1832" y2="51.3453"/>
        <line class="cls-1" x1="27.0998" y1="48.362" x2="27.0998" y2="54.3286"/>
        <line class="cls-1" x1="30.0831" y1="51.3453" x2="24.1165" y2="51.3453"/>
        <line class="cls-1" x1="39.033" y1="48.362" x2="39.033" y2="54.3286"/>
        <line class="cls-1" x1="42.0163" y1="51.3453" x2="36.0497" y2="51.3453"/>
        <line class="cls-1" x1="50.9662" y1="48.362" x2="50.9662" y2="54.3286"/>
        <line class="cls-1" x1="53.9495" y1="51.3453" x2="47.9829" y2="51.3453"/>
        <line class="cls-1" x1="62.8995" y1="48.362" x2="62.8995" y2="54.3286"/>
        <line class="cls-1" x1="65.8828" y1="51.3453" x2="59.9162" y2="51.3453"/>
        <line class="cls-1" x1="74.8327" y1="48.362" x2="74.8327" y2="54.3286"/>
        <line class="cls-1" x1="77.816" y1="51.3453" x2="71.8494" y2="51.3453"/>
        <line class="cls-1" x1="3.2333" y1="60.2953" x2="3.2333" y2="66.2619"/>
        <line class="cls-1" x1="6.2166" y1="63.2786" x2="0.25" y2="63.2786"/>
        <line class="cls-1" x1="15.1665" y1="60.2953" x2="15.1665" y2="66.2619"/>
        <line class="cls-1" x1="18.1498" y1="63.2786" x2="12.1832" y2="63.2786"/>
        <line class="cls-1" x1="27.0998" y1="60.2953" x2="27.0998" y2="66.2619"/>
        <line class="cls-1" x1="30.0831" y1="63.2786" x2="24.1165" y2="63.2786"/>
        <line class="cls-1" x1="39.033" y1="60.2953" x2="39.033" y2="66.2619"/>
        <line class="cls-1" x1="42.0163" y1="63.2786" x2="36.0497" y2="63.2786"/>
        <line class="cls-1" x1="50.9662" y1="60.2953" x2="50.9662" y2="66.2619"/>
        <line class="cls-1" x1="53.9495" y1="63.2786" x2="47.9829" y2="63.2786"/>
        <line class="cls-1" x1="62.8995" y1="60.2953" x2="62.8995" y2="66.2619"/>
        <line class="cls-1" x1="65.8828" y1="63.2786" x2="59.9162" y2="63.2786"/>
        <line class="cls-1" x1="74.8327" y1="60.2953" x2="74.8327" y2="66.2619"/>
        <line class="cls-1" x1="77.816" y1="63.2786" x2="71.8494" y2="63.2786"/>
        <line class="cls-1" x1="3.2333" y1="72.2285" x2="3.2333" y2="78.1951"/>
        <line class="cls-1" x1="6.2166" y1="75.2118" x2="0.25" y2="75.2118"/>
        <line class="cls-1" x1="15.1665" y1="72.2285" x2="15.1665" y2="78.1951"/>
        <line class="cls-1" x1="18.1498" y1="75.2118" x2="12.1832" y2="75.2118"/>
        <line class="cls-1" x1="27.0998" y1="72.2285" x2="27.0998" y2="78.1951"/>
        <line class="cls-1" x1="30.0831" y1="75.2118" x2="24.1165" y2="75.2118"/>
        <line class="cls-1" x1="39.033" y1="72.2285" x2="39.033" y2="78.1951"/>
        <line class="cls-1" x1="42.0163" y1="75.2118" x2="36.0497" y2="75.2118"/>
        <line class="cls-1" x1="50.9662" y1="72.2285" x2="50.9662" y2="78.1951"/>
        <line class="cls-1" x1="53.9495" y1="75.2118" x2="47.9829" y2="75.2118"/>
        <line class="cls-1" x1="62.8995" y1="72.2285" x2="62.8995" y2="78.1951"/>
        <line class="cls-1" x1="65.8828" y1="75.2118" x2="59.9162" y2="75.2118"/>
        <line class="cls-1" x1="74.8327" y1="72.2285" x2="74.8327" y2="78.1951"/>
        <line class="cls-1" x1="77.816" y1="75.2118" x2="71.8494" y2="75.2118"/>
      </g>
      <g id="CIRCLES">
        <circle class="cls-2" cx="61.2984" cy="23.2443" r="20.5598"/>
        <circle class="cls-3" cx="61.2984" cy="23.2443" r="16.8468"/>
        <circle class="cls-4" cx="61.2984" cy="23.2443" r="13.1338"/>
        <circle class="cls-5" cx="61.2984" cy="23.2443" r="9.4209"/>
        <circle class="cls-6" cx="61.2984" cy="23.2443" r="5.7079"/>
        <circle class="cls-5" cx="11.9227" cy="22.7467" r="11.4127"/>
        <circle class="cls-4" cx="11.9227" cy="22.7467" r="7.9564"/>
        <circle class="cls-3" cx="11.9227" cy="22.7467" r="4.5002"/>
        <circle class="cls-4" cx="29.5384" cy="59.6423" r="8.0055"/>
        <circle class="cls-5" cx="29.5384" cy="59.6423" r="4.4977"/>
      </g>
    </g>
    <g id="REACTOME">
      <g id="LOGO">
        <path class="cls-7"
              d="M679.0348,350.5188a.8775.8775,0,0,1-.2962.6625.8529.8529,0,0,1-.4932.1269,5.0441,5.0441,0,0,1-.6629-.0562,5.26,5.26,0,0,0-3.2.5357,4.3644,4.3644,0,0,0-1.72,1.6353,4.4934,4.4934,0,0,0-.62,2.34v8.5715a.8488.8488,0,0,1-.2256.6059.8106.8106,0,0,1-.62.24.82.82,0,0,1-.8459-.8455V350.6034a.8118.8118,0,0,1,.24-.62.8506.8506,0,0,1,.6063-.2255.78.78,0,0,1,.846.8459v1.7481a5.9888,5.9888,0,0,1,2.0864-2.03,5.43,5.43,0,0,1,2.763-.7331Q679.0343,349.5882,679.0348,350.5188Z"
              transform="translate(-561.9605 -344.8515)"/>
        <path class="cls-7"
              d="M691.088,350.5894a6.712,6.712,0,0,1,2.5234,2.6924,8.3148,8.3148,0,0,1,.9022,3.9191.7543.7543,0,0,1-.2255.5779.8308.8308,0,0,1-.5924.2115H681.8821a6.2886,6.2886,0,0,0,.874,2.9749,5.5805,5.5805,0,0,0,2.1149,2.0439,6.007,6.007,0,0,0,2.96.7331,6.8161,6.8161,0,0,0,2.2132-.38,4.7221,4.7221,0,0,0,1.7622-1.0012.9356.9356,0,0,1,.5923-.2256.7419.7419,0,0,1,.5638,1.297,7.1505,7.1505,0,0,1-2.3544,1.3536,8.0185,8.0185,0,0,1-2.7771.5358A7.7753,7.7753,0,0,1,683.87,364.32a7.123,7.123,0,0,1-2.72-2.7911,8.2331,8.2331,0,0,1-.9872-4.046,8.8147,8.8147,0,0,1,.9165-4.0744,6.826,6.826,0,0,1,2.5656-2.7911,7.1138,7.1138,0,0,1,3.7643-1.0009A7.0136,7.0136,0,0,1,691.088,350.5894Zm-7.3872,2.0723a6.2029,6.2029,0,0,0-1.79,3.8626h10.9678a5.882,5.882,0,0,0-1.6919-3.8626,5.1742,5.1742,0,0,0-3.7779-1.4663A5.1157,5.1157,0,0,0,683.7008,352.6617Z"
              transform="translate(-561.9605 -344.8515)"/>
        <path class="cls-7"
              d="M708.6673,350.6175a7.4652,7.4652,0,0,1,2.8336,2.8336,7.9918,7.9918,0,0,1,1.0294,4.0319v6.8516a.8492.8492,0,0,1-.2256.6059.8106.8106,0,0,1-.62.24.82.82,0,0,1-.8459-.8455v-2.2a6.5574,6.5574,0,0,1-2.5516,2.3545,7.61,7.61,0,0,1-3.623.86,7.9869,7.9869,0,0,1-4.0319-1.0294,7.4513,7.4513,0,0,1-2.8336-2.8336,8.3558,8.3558,0,0,1,0-8.0354,7.46,7.46,0,0,1,2.8336-2.8336,8.3558,8.3558,0,0,1,8.0354,0Zm-.8456,12.3354a5.8681,5.8681,0,0,0,2.2132-2.2558,6.8308,6.8308,0,0,0,0-6.4285,5.9736,5.9736,0,0,0-2.2132-2.2694,6.1934,6.1934,0,0,0-8.5434,2.2694,6.7284,6.7284,0,0,0,0,6.4285,5.965,5.965,0,0,0,2.2277,2.2558,6.5085,6.5085,0,0,0,6.3157,0Z"
              transform="translate(-561.9605 -344.8515)"/>
        <path class="cls-7"
              d="M719.6635,364.32a7.3656,7.3656,0,0,1-2.749-2.8336,8.1076,8.1076,0,0,1-1.0012-4.0035,8.5813,8.5813,0,0,1,.9306-4.0178,7.09,7.09,0,0,1,2.5941-2.82,6.9313,6.9313,0,0,1,3.7217-1.029,7.6418,7.6418,0,0,1,3.2987.7047,7.2585,7.2585,0,0,1,2.5941,2.0864.8993.8993,0,0,1,.1974.48.6894.6894,0,0,1-.3949.62.6739.6739,0,0,1-.451.1694.7776.7776,0,0,1-.6485-.3383,5.7456,5.7456,0,0,0-4.5958-2.143,5.2166,5.2166,0,0,0-4.8638,3.0451,7.393,7.393,0,0,0-.6907,3.2425,6.7591,6.7591,0,0,0,.7613,3.2141,5.6892,5.6892,0,0,0,2.1145,2.2558,5.8772,5.8772,0,0,0,3.1017.8174,5.6247,5.6247,0,0,0,3.9753-1.3813.8122.8122,0,0,1,.5923-.254.6884.6884,0,0,1,.5073.1975.8046.8046,0,0,1,.2821.62.6429.6429,0,0,1-.2255.5072,7.0035,7.0035,0,0,1-2.312,1.3958,8.023,8.023,0,0,1-2.8195.4936A7.5727,7.5727,0,0,1,719.6635,364.32Z"
              transform="translate(-561.9605 -344.8515)"/>
        <path class="cls-7"
              d="M741.0773,363.7a.8593.8593,0,0,1,.24.6345.822.822,0,0,1-.24.6059.8574.8574,0,0,1-.6345.24h-.6485a5.3934,5.3934,0,0,1-2.763-.7047,4.97,4.97,0,0,1-1.8893-1.9315,5.6509,5.6509,0,0,1-.6766-2.777v-7.923h-2.1992a.7616.7616,0,1,1,0-1.5226h2.1992v-4.5957a.8589.8589,0,0,1,.2395-.6345.8238.8238,0,0,1,.6064-.24.8235.8235,0,0,1,.874.8741v4.5957h3.7218a.7616.7616,0,1,1,0,1.5226h-3.7218v7.923a3.632,3.632,0,0,0,1.015,2.6643,3.5224,3.5224,0,0,0,2.6221,1.0289h.62A.8592.8592,0,0,1,741.0773,363.7Z"
              transform="translate(-561.9605 -344.8515)"/>
        <path class="cls-7"
              d="M747.8582,364.32a7.4523,7.4523,0,0,1-2.8337-2.8336,8.3558,8.3558,0,0,1,0-8.0354,7.4606,7.4606,0,0,1,2.8337-2.8336,8.3556,8.3556,0,0,1,8.0353,0,7.4655,7.4655,0,0,1,2.8337,2.8336,8.3558,8.3558,0,0,1,0,8.0354,7.4571,7.4571,0,0,1-2.8337,2.8336,8.3549,8.3549,0,0,1-8.0353,0Zm7.19-1.3672a5.8688,5.8688,0,0,0,2.2132-2.2558,6.8315,6.8315,0,0,0,0-6.4285,5.9743,5.9743,0,0,0-2.2132-2.2694,6.1933,6.1933,0,0,0-8.5434,2.2694,6.7277,6.7277,0,0,0,0,6.4285,5.9654,5.9654,0,0,0,2.2276,2.2558,6.5087,6.5087,0,0,0,6.3158,0Z"
              transform="translate(-561.9605 -344.8515)"/>
        <path class="cls-7"
              d="M783.2707,350.406a5.6578,5.6578,0,0,1,2.0583,2.3541,7.7453,7.7453,0,0,1,.7328,3.4259v8.1486a.8475.8475,0,0,1-.2255.6059.8094.8094,0,0,1-.62.24.82.82,0,0,1-.846-.8455V356.186a5.3508,5.3508,0,0,0-1.1561-3.5527,3.689,3.689,0,0,0-2.9605-1.3813,4.1576,4.1576,0,0,0-3.186,1.297,4.6442,4.6442,0,0,0-1.1561,3.44v8.346a.8475.8475,0,0,1-.2256.6059.8091.8091,0,0,1-.62.24.8194.8194,0,0,1-.8459-.8455V356.186a5.3509,5.3509,0,0,0-1.1562-3.5527,3.6888,3.6888,0,0,0-2.96-1.3813,4.25,4.25,0,0,0-4.4265,4.4545v8.6281a.8492.8492,0,0,1-.2255.6059.8108.8108,0,0,1-.62.24.82.82,0,0,1-.846-.8455V350.6034a.8118.8118,0,0,1,.24-.62.8509.8509,0,0,1,.6064-.2255.78.78,0,0,1,.8459.8459v1.1a5.47,5.47,0,0,1,1.9456-1.5791,5.5862,5.5862,0,0,1,2.4809-.5638,5.4538,5.4538,0,0,1,2.9323.8038,5.772,5.772,0,0,1,2.0583,2.2132,5.636,5.636,0,0,1,2.1145-2.2132,5.8505,5.8505,0,0,1,3.0451-.8038A5.487,5.487,0,0,1,783.2707,350.406Z"
              transform="translate(-561.9605 -344.8515)"/>
        <path class="cls-7"
              d="M800.9347,350.5894a6.7127,6.7127,0,0,1,2.5234,2.6924,8.3148,8.3148,0,0,1,.9021,3.9191.7543.7543,0,0,1-.2255.5779.83.83,0,0,1-.5923.2115H791.7287a6.29,6.29,0,0,0,.8741,2.9749,5.581,5.581,0,0,0,2.1148,2.0439,6.0071,6.0071,0,0,0,2.9605.7331,6.8161,6.8161,0,0,0,2.2132-.38,4.7224,4.7224,0,0,0,1.7621-1.0012.936.936,0,0,1,.5923-.2256.742.742,0,0,1,.5639,1.297,7.15,7.15,0,0,1-2.3545,1.3536,8.018,8.018,0,0,1-2.777.5358,7.7751,7.7751,0,0,1-3.9617-1.0013,7.1233,7.1233,0,0,1-2.7205-2.7911,8.2331,8.2331,0,0,1-.9872-4.046,8.8134,8.8134,0,0,1,.9166-4.0744,6.8253,6.8253,0,0,1,2.5656-2.7911,7.1132,7.1132,0,0,1,3.7642-1.0009A7.0139,7.0139,0,0,1,800.9347,350.5894Zm-7.3873,2.0723a6.2028,6.2028,0,0,0-1.79,3.8626h10.9677a5.8815,5.8815,0,0,0-1.6919-3.8626,5.1739,5.1739,0,0,0-3.7779-1.4663A5.1157,5.1157,0,0,0,793.5474,352.6617Z"
              transform="translate(-561.9605 -344.8515)"/>
      </g>
    </g>
    <g id="GSA">
      <path class="cls-7"
            d="M710.91,396.7369a3.2726,3.2726,0,0,1,.9288,2.4055v15.3228a2.8854,2.8854,0,0,1-1.0279,2.3742,24.8681,24.8681,0,0,1-28.2453,2.1786,24.4429,24.4429,0,0,1-8.9438-9.296,26.3867,26.3867,0,0,1-3.2717-13.0164,26.0777,26.0777,0,0,1,3.2717-12.92,24.7675,24.7675,0,0,1,8.9438-9.2986,23.7879,23.7879,0,0,1,12.5389-3.4309,24.8457,24.8457,0,0,1,8.4272,1.2837,25.3208,25.3208,0,0,1,7.2165,4.2318,2.9864,2.9864,0,0,1,1.0228,1.1871,3.6728,3.6728,0,0,1,.2609,1.4428,2.72,2.72,0,0,1-.934,2.1159,3.19,3.19,0,0,1-2.2073.8323,3.3964,3.3964,0,0,1-2.1811-.8323,18.7462,18.7462,0,0,0-5.1294-3.24,17.8554,17.8554,0,0,0-6.4756-.9914A17.037,17.037,0,0,0,685.9,379.713a19.0678,19.0678,0,0,0-6.6687,7.1487,20.9221,20.9221,0,0,0,0,19.7164,19.113,19.113,0,0,0,6.6687,7.1175,17.0179,17.0179,0,0,0,9.2046,2.63,18.6582,18.6582,0,0,0,10.3213-3.2064V401.7071h-8.85a3.4746,3.4746,0,0,1-2.4055-.8349,2.8746,2.8746,0,0,1,0-4.2319,3.473,3.473,0,0,1,2.4055-.8322h11.9911A3.1873,3.1873,0,0,1,710.91,396.7369Z"
            transform="translate(-561.9605 -344.8515)"/>
      <path class="cls-7"
            d="M727.0655,419.5946a15.2356,15.2356,0,0,1-7.0183-7.3731,3.4875,3.4875,0,0,1-.3235-1.2811,2.3775,2.3775,0,0,1,.71-1.7011,3.6255,3.6255,0,0,1,1.92-.994,2.3278,2.3278,0,0,1,.6418-.0626,3.5319,3.5319,0,0,1,1.9568.6079,3.6621,3.6621,0,0,1,1.3775,1.6358,9.4235,9.4235,0,0,0,4.5554,4.2319,16.284,16.284,0,0,0,7.4983,1.7324,14.4074,14.4074,0,0,0,8.1454-2.2125,6.9149,6.9149,0,0,0,3.3344-6.0607,8.2075,8.2075,0,0,0-2.823-6.2513q-2.8178-2.5947-8.5889-3.1725-7.9524-.771-12.5077-4.6493a12.244,12.244,0,0,1-4.55-9.7134,11.13,11.13,0,0,1,2.3377-7.0861,14.6325,14.6325,0,0,1,6.4129-4.5528,25.2358,25.2358,0,0,1,9.1369-1.5706,17.9418,17.9418,0,0,1,9.2985,2.2437,19.1878,19.1878,0,0,1,6.413,6.413,4.3616,4.3616,0,0,1,.7671,2.3064,2.7175,2.7175,0,0,1-1.2785,2.309,3.05,3.05,0,0,1-1.67.4487,3.5189,3.5189,0,0,1-1.795-.48,3.2748,3.2748,0,0,1-1.2837-1.315,12.1684,12.1684,0,0,0-4.3258-4.391,12.96,12.96,0,0,0-6.5747-1.508,14.661,14.661,0,0,0-7.8845,1.8916,6.0934,6.0934,0,0,0-3.016,5.4815,6.9769,6.9769,0,0,0,2.6925,5.5781q2.6925,2.2464,9.6221,2.9508,7.6939.771,11.9232,4.6493a13.2087,13.2087,0,0,1,4.2319,10.2274,12.7563,12.7563,0,0,1-2.5,7.9184,15.0978,15.0978,0,0,1-6.6373,4.9363,23.9251,23.9251,0,0,1-8.8812,1.6358A22.9681,22.9681,0,0,1,727.0655,419.5946Z"
            transform="translate(-561.9605 -344.8515)"/>
      <path class="cls-7"
            d="M804.3605,418.5066a3.137,3.137,0,0,1-.96,2.3064,3.2206,3.2206,0,0,1-2.3742.9627A3.3944,3.3944,0,0,1,799.2,421.23a3.1012,3.1012,0,0,1-1.2471-1.5054l-3.59-8.9776h-23.022l-3.6527,8.9776a3.5935,3.5935,0,0,1-1.2836,1.5054,3.2287,3.2287,0,0,1-1.795.5453,3.0773,3.0773,0,0,1-2.3429-.994,3.33,3.33,0,0,1-.9288-2.34,4.1844,4.1844,0,0,1,.3235-1.4741l18.0179-43.0255a3.2484,3.2484,0,0,1,3.1413-2.2437,3.1147,3.1147,0,0,1,3.1412,2.2437l18.0806,43.1533A4.0563,4.0563,0,0,1,804.3605,418.5066Zm-30.7761-13.2747h18.5293l-9.1681-22.8264Z"
            transform="translate(-561.9605 -344.8515)"/>
    </g>
  </g>
</svg>
